<?xml version="1.0" encoding="UTF-8"?><svg id="Layer_1" xmlns="http://www.w3.org/2000/svg" viewBox="0 0 229.09 376.49"><defs><style>.cls-1{fill:#fff;}</style></defs><path class="cls-1" d="m187.97,173.47c11.51,12.62,19.7,26.94,25.06,42.88,17.35,51.56-1.4,106.26-46.84,137.36-14.28,9.77-29.91,16.47-46.17,21.99-3.69,1.25-6.89,1.27-10.04-1.77-27.53-26.59-55.16-53.07-82.77-79.57-4.08-3.92-8.23-7.77-12.29-11.7-20.44-19.75-19.81-51.2,1.37-70.3,8.51-7.67,17-15.36,25.29-22.86-5.07-7.39-10.54-14.13-14.7-21.59C-11.42,99.14,26.15,21.32,94.78,2.99,102.7.87,111.17.72,119.42.02c1.93-.16,4.44.61,5.93,1.85,28.42,23.85,56.63,47.95,85.09,71.76,26.4,22.08,23.19,60.11.42,78.58-7.98,6.48-15.12,14-22.88,21.26Zm-136.39,23.44c-10.4,9.55-19.96,17.83-28.96,26.7-14.34,14.13-13.75,36.39.76,50.29,30.51,29.24,60.95,58.55,91.43,87.82.56.54,1.27.93,2.26,1.64,2.97-3.61,5.92-6.97,8.63-10.51,13.73-17.9,19.62-37.82,15.46-60.34-2.98-16.12-11.75-29.03-23.62-39.51-21.53-19.02-43.73-37.27-65.95-56.09Zm126.7-31.64c8.78-8.06,16.93-15.4,24.94-22.91,18.89-17.7,18.62-42.67-1.06-59.51-26.41-22.59-53.11-44.83-79.73-67.17-5.96-5-6.56-5.24-12.48.11-16.36,14.78-21.74,33.64-19.2,55.05,2.12,17.85,11.82,31.73,24.97,42.98,20.45,17.5,41.56,34.22,62.57,51.43Zm-8.7,8.65c-23.79-20.67-50.43-37.13-71.93-61.21-.24,31.94-15.74,55.38-37.01,75.88,24.36,20.38,48.58,40.64,72.42,60.59.3-29.95,15.1-53.89,36.51-75.25Zm9.24,8.29c-17.6,17.47-30.93,36.54-33.14,61.45-.96,10.79.2,21.36,10.79,27.55,13.4,7.83,27.41,8.36,41.45,1.56,6-2.91,9.77-7.77,9.1-14.7-1.05-10.86-1.65-21.9-4.19-32.44-3.94-16.32-12.02-30.78-24.01-43.42Zm-127.38-1.9c16.46-16.26,30.09-33.54,33.32-56.9,1.54-11.11,1.06-21.74-8.97-29.33-11.39-8.63-32.56-9.13-44.38-1.15-4.68,3.16-7.85,7.1-7.43,13.15.48,6.95.26,14.01,1.38,20.85,3.28,20.1,11.21,38.08,26.08,53.38Zm99.51,102.16c8.4,26.12,2.69,49.14-10.4,71.24,24.92-7.69,60.8-48.09,61.53-69.12-16.94,7.43-33.61,6.36-51.13-2.11ZM80.26,81.94c-5.36-23.2-2.27-44.67,11.5-64.65-29.1,7.38-58.78,41.18-62,62.32,17.01-6.63,33.71-6.42,50.49,2.33Z"/></svg>